<?xml version="1.0" standalone="no"?>
<!DOCTYPE svg PUBLIC "-//W3C//DTD SVG 20010904//EN"
 "http://www.w3.org/TR/2001/REC-SVG-20010904/DTD/svg10.dtd">
<svg version="1.0" xmlns="http://www.w3.org/2000/svg"
 width="260.000000pt" height="260.000000pt" viewBox="0 0 260.000000 260.000000"
 preserveAspectRatio="xMidYMid meet">
<metadata>
Created by potrace 1.11, written by Peter Selinger 2001-2013
</metadata>
<g transform="translate(0.000000,260.000000) scale(0.100000,-0.100000)"
fill="#000000" stroke="none">
<path d="M1356 2411 c-4 -6 -12 -9 -17 -6 -5 4 -6 -2 -2 -12 6 -16 5 -16 -16
1 -19 17 -21 17 -15 3 5 -13 2 -16 -12 -10 -13 5 -15 3 -10 -8 4 -8 1 -6 -8 5
-15 18 -71 33 -60 15 3 -5 -2 -9 -11 -9 -9 0 -14 4 -11 9 4 5 0 8 -6 7 -25 -3
-37 -17 -32 -34 5 -15 4 -15 -6 1 -6 9 -16 14 -22 11 -6 -4 -14 -1 -18 6 -4 7
-20 14 -34 15 -14 2 -24 -1 -20 -6 3 -5 -2 -9 -11 -9 -9 0 -14 4 -11 9 4 5 0
8 -6 7 -25 -3 -37 -17 -32 -34 5 -15 4 -15 -6 1 -6 9 -16 15 -21 12 -5 -4 -6
-11 -3 -17 4 -6 2 -8 -4 -4 -5 3 -12 0 -15 -6 -2 -7 -7 -10 -11 -7 -3 3 3 15
14 27 11 12 20 24 20 28 0 4 -29 -24 -64 -61 -36 -39 -62 -74 -59 -82 4 -9 0
-11 -11 -7 -12 4 -15 2 -10 -9 6 -18 -2 -24 -40 -31 -33 -6 -42 -13 -32 -23 4
-4 10 -3 14 2 11 16 29 15 29 0 0 -8 -4 -12 -8 -10 -11 8 -40 -6 -33 -16 3 -5
-2 -6 -10 -3 -9 3 -13 11 -9 17 3 6 1 7 -6 3 -9 -6 -9 -11 0 -22 14 -17 -2
-19 -20 -1 -11 10 -11 8 0 -10 7 -12 17 -19 23 -16 5 3 6 1 2 -6 -6 -9 -11 -9
-22 0 -11 9 -15 8 -20 -4 -3 -9 -3 -21 1 -27 10 -16 -36 11 -52 30 -11 13 -12
13 -7 -2 4 -11 1 -18 -6 -18 -6 0 -9 -4 -6 -8 2 -4 0 -14 -5 -22 -8 -12 -9
-11 -7 5 2 15 -2 20 -19 19 -13 -1 -20 2 -18 7 3 4 0 11 -6 15 -8 4 -9 3 -5
-4 4 -7 2 -12 -4 -12 -7 0 -10 -6 -7 -12 7 -21 -11 -46 -30 -44 -10 2 -12 1
-5 -1 17 -6 15 -23 -4 -23 -8 0 -12 -5 -9 -10 4 -6 11 -8 16 -5 5 3 6 -1 3 -9
-5 -13 -8 -12 -24 2 -11 8 -17 19 -14 24 3 4 1 8 -4 8 -6 0 -13 -7 -16 -16 -3
-8 -2 -12 4 -9 6 4 7 -1 3 -11 -4 -11 -8 -13 -11 -6 -2 7 -10 12 -18 12 -8 0
-14 5 -14 11 0 5 -4 8 -10 4 -5 -3 -6 -13 -3 -23 7 -16 6 -16 -10 0 -10 10
-25 14 -34 11 -11 -4 -14 -3 -9 5 5 8 2 10 -10 5 -15 -5 -15 -7 0 -15 9 -5 20
-7 25 -3 5 3 12 2 15 -3 3 -5 0 -9 -7 -10 -54 -5 -61 -19 -29 -56 17 -19 16
-19 -13 0 -27 17 -29 17 -16 1 12 -16 12 -17 -5 -10 -16 6 -17 5 -6 -9 9 -11
10 -18 2 -23 -6 -4 -9 -1 -8 5 2 6 -7 18 -19 27 -23 15 -27 3 -9 -26 6 -10 5
-12 -2 -7 -15 9 -15 1 -1 -27 9 -21 9 -21 -5 -4 -14 18 -15 18 -27 -2 -9 -14
-17 -17 -25 -10 -9 8 -11 5 -7 -10 4 -16 1 -21 -13 -20 -11 0 -14 3 -6 6 6 2
10 9 6 14 -3 5 -12 2 -20 -6 -12 -12 -13 -19 -3 -37 12 -23 12 -23 -10 -4 -11
11 -21 14 -21 8 0 -7 3 -12 8 -12 15 0 30 -37 21 -51 -8 -12 -9 -12 -7 1 2 8
0 16 -5 18 -18 6 -26 1 -21 -13 4 -11 2 -13 -9 -9 -9 3 -14 14 -12 26 3 11 1
17 -3 14 -4 -4 -7 -13 -7 -19 -1 -7 -7 -11 -14 -9 -7 1 -10 -1 -7 -6 3 -5 -6
-15 -20 -22 l-25 -14 23 -13 c13 -7 16 -13 8 -12 -36 3 -46 -1 -27 -12 12 -7
15 -15 9 -22 -10 -14 -10 -27 1 -44 4 -7 0 -16 -10 -22 -11 -6 -13 -11 -5 -11
7 0 10 -4 7 -10 -3 -5 -1 -10 4 -10 6 0 11 5 11 10 0 6 4 10 9 10 5 0 8 -8 6
-17 -1 -11 -9 -17 -21 -15 -11 2 -15 0 -8 -5 6 -4 10 -20 9 -35 -1 -19 3 -28
14 -29 11 0 9 -3 -5 -9 -12 -5 -25 -14 -30 -21 -4 -7 -3 -10 3 -6 6 4 13 0 17
-8 3 -8 1 -17 -4 -20 -11 -7 -6 -36 6 -33 5 2 8 6 6 11 -1 4 2 7 8 7 12 0 13
-13 3 -24 -11 -11 -10 -30 2 -39 6 -5 4 -7 -5 -4 -8 2 -14 9 -13 15 2 7 -4 9
-13 5 -15 -5 -15 -7 0 -15 9 -5 16 -14 16 -19 0 -6 -4 -7 -10 -4 -5 3 -10 1
-10 -4 0 -14 17 -14 25 -1 3 6 12 10 18 9 8 0 8 -2 -1 -6 -9 -4 -10 -8 -2 -18
9 -11 7 -12 -8 -8 -23 5 -38 -12 -21 -23 8 -5 9 -3 4 7 -7 11 -6 12 7 2 8 -7
19 -9 23 -5 5 4 5 1 1 -6 -4 -7 -12 -10 -17 -7 -5 4 -9 1 -9 -6 0 -8 -4 -8
-15 1 -9 7 -15 8 -15 2 0 -5 8 -13 17 -17 17 -6 17 -7 0 -20 -16 -11 -16 -13
-2 -19 9 -3 13 -10 10 -16 -4 -6 -12 -7 -18 -3 -7 4 -6 0 2 -10 7 -9 10 -17 6
-17 -4 0 -2 -6 4 -14 10 -11 8 -17 -6 -25 -11 -6 -13 -11 -5 -11 7 0 10 -4 7
-10 -3 -5 -1 -10 4 -10 6 0 11 5 11 10 0 6 4 10 9 10 5 0 8 -8 6 -17 -1 -11
-9 -17 -21 -15 -11 2 -15 0 -8 -5 6 -4 10 -20 9 -35 -1 -19 3 -28 14 -29 11 0
9 -3 -5 -9 -12 -5 -25 -14 -30 -21 -4 -7 -3 -10 3 -6 6 4 13 0 17 -8 3 -8 1
-17 -4 -20 -11 -7 -6 -36 6 -33 5 2 8 6 6 11 -1 4 2 7 8 7 13 0 13 -17 0 -25
-6 -4 -8 -11 -4 -16 3 -5 2 -9 -3 -8 -28 5 -36 -2 -17 -16 10 -8 24 -14 29
-15 6 0 3 5 -5 10 -10 6 -11 10 -3 10 7 0 20 -11 29 -25 9 -14 19 -23 23 -21
4 3 13 1 20 -3 10 -6 9 -10 -4 -14 -9 -4 -14 -3 -10 3 4 6 3 10 -2 9 -15 -4
-43 13 -37 22 3 5 -2 6 -10 3 -12 -5 -13 -9 -3 -19 7 -7 17 -12 22 -12 6 1 9
-4 7 -11 -1 -8 2 -11 7 -8 5 3 14 -1 21 -9 7 -8 16 -12 21 -9 5 3 9 1 9 -5 0
-5 9 -8 20 -6 11 2 18 0 15 -4 -2 -5 4 -19 15 -31 11 -12 22 -31 26 -42 4 -15
9 -17 20 -7 7 6 11 16 7 22 -3 5 -1 7 5 4 7 -5 7 -14 -1 -31 -7 -13 -16 -22
-21 -19 -5 4 -6 0 -1 -7 6 -10 11 -9 22 5 12 17 13 17 13 2 0 -24 -4 -32 -13
-29 -5 1 -5 -2 -2 -8 5 -8 12 -7 23 3 25 21 43 30 41 20 -3 -20 2 -27 11 -13
8 11 9 8 4 -11 -3 -15 -1 -30 5 -33 6 -4 11 -2 11 5 0 8 4 8 15 -1 8 -7 15 -9
15 -5 0 3 11 -2 24 -12 17 -14 39 -18 85 -17 53 1 61 -2 61 -18 0 -10 7 -21
15 -24 8 -4 15 -14 15 -23 0 -15 60 -16 744 -16 409 0 748 4 753 8 4 5 8 21 8
35 1 24 5 27 35 27 21 0 36 5 36 13 1 6 2 18 3 26 1 9 14 13 39 13 29 -1 37 3
36 17 -1 9 3 15 10 13 6 -3 10 -10 8 -16 -1 -7 2 -10 8 -6 6 3 7 11 4 17 -5 7
-1 9 9 5 9 -3 18 -1 20 6 3 8 10 5 22 -8 15 -19 16 -19 7 -1 -10 20 4 69 18
61 4 -2 7 3 7 11 0 11 -5 10 -22 -6 -12 -11 -25 -20 -30 -20 -5 0 -1 6 10 13
10 8 15 19 11 25 -3 6 -1 14 5 18 8 5 9 3 5 -5 -5 -8 -3 -12 5 -10 28 3 40 -1
33 -13 -4 -7 -3 -8 5 -4 9 6 9 11 0 22 -10 13 -8 14 16 10 15 -3 24 -2 20 2
-3 4 -11 7 -16 7 -5 0 -9 3 -9 8 0 4 0 9 0 12 0 3 10 1 21 -6 13 -7 19 -7 15
-1 -3 6 -2 13 4 17 5 3 10 1 10 -4 0 -6 5 -11 11 -11 8 0 8 5 -1 15 -10 12
-10 15 1 15 8 0 6 5 -6 13 -13 10 -15 16 -6 21 6 4 8 12 5 18 -4 5 6 2 21 -8
22 -14 28 -15 35 -4 7 12 11 12 27 0 17 -13 17 -13 1 5 -14 15 -20 16 -32 6
-11 -9 -16 -9 -22 0 -4 8 -3 9 5 5 7 -4 15 2 20 16 6 13 10 18 10 12 1 -7 8
-14 16 -17 12 -5 12 -2 3 18 -6 13 -15 22 -21 18 -6 -3 -7 -1 -3 6 4 6 12 8
18 5 8 -5 9 -1 4 12 -5 10 -9 25 -9 32 0 6 -5 12 -11 12 -6 0 -5 5 2 12 19 19
14 32 -5 17 -16 -13 -17 -12 -4 4 11 14 11 20 0 35 -13 15 -12 16 3 4 26 -21
31 4 6 29 l-23 21 24 -12 c22 -11 23 -11 16 6 -4 11 -8 25 -8 32 0 6 -5 12
-11 12 -6 0 -5 5 2 12 19 19 14 32 -5 17 -16 -13 -17 -12 -4 4 11 14 11 20 0
35 -13 15 -12 16 3 4 26 -21 31 4 6 29 l-23 21 24 -12 c22 -11 23 -11 16 6 -4
11 -8 25 -8 32 0 6 -5 12 -11 12 -6 0 -5 5 2 12 19 19 14 32 -5 17 -16 -13
-17 -12 -4 4 11 14 11 20 0 35 -13 15 -12 16 3 4 26 -21 31 4 6 29 l-23 21 24
-12 c22 -11 23 -11 16 6 -4 11 -8 25 -8 32 0 6 -5 12 -11 12 -6 0 -5 5 2 12
19 19 14 32 -5 17 -16 -13 -17 -12 -4 4 11 14 11 20 0 35 -13 15 -12 16 3 4
26 -21 31 4 6 29 l-23 21 24 -12 c22 -11 23 -11 16 6 -4 11 -8 25 -8 32 0 6
-5 12 -11 12 -6 0 -5 5 2 12 19 19 14 32 -5 17 -16 -13 -17 -12 -5 3 8 9 10
23 6 29 -4 7 -3 9 4 5 17 -11 23 11 7 27 -13 13 -13 16 1 21 10 4 13 2 8 -7
-5 -9 -4 -9 5 -1 19 17 -27 62 -58 57 -19 -3 -22 -1 -12 11 9 11 7 18 -14 34
-26 21 -32 37 -15 45 6 3 5 4 -2 3 -7 -2 -25 6 -41 16 -27 19 -27 19 -35 -3
l-9 -23 -6 23 c-3 13 -10 20 -16 17 -5 -4 -13 -1 -17 5 -4 8 -3 9 5 5 6 -4 14
0 17 8 3 9 11 13 17 9 5 -3 7 -1 3 5 -3 5 -1 13 4 15 6 3 5 4 -2 3 -7 -2 -21
3 -30 12 -10 8 -18 10 -18 4 0 -6 6 -12 13 -15 6 -3 2 -4 -9 -4 -13 1 -20 6
-17 14 3 8 -2 11 -16 8 -11 -2 -23 1 -26 6 -4 5 -11 7 -16 4 -5 -4 -7 4 -6 17
2 13 8 21 13 18 5 -3 7 -12 5 -20 -1 -8 0 -12 5 -8 4 4 13 3 21 -3 20 -17 16
-1 -7 23 -15 17 -17 24 -8 30 7 4 8 8 3 8 -6 0 -22 -7 -35 -17 -14 -9 -20 -10
-13 -3 6 7 9 20 6 29 -4 14 -3 14 6 1 8 -11 11 -12 11 -2 0 8 5 10 13 6 6 -4
9 -3 4 1 -11 12 -77 16 -77 5 0 -5 7 -7 15 -4 9 4 15 0 15 -10 0 -9 -4 -16 -8
-16 -14 0 -43 36 -35 43 3 4 2 7 -4 7 -6 0 -14 -7 -17 -16 -4 -10 -2 -13 6 -8
7 4 8 3 4 -4 -4 -7 -2 -12 5 -12 7 0 10 -3 7 -6 -8 -7 -48 16 -70 40 -10 11
-21 16 -25 12 -4 -3 2 -12 12 -19 10 -8 15 -20 12 -28 -4 -10 -6 -9 -6 4 -1
10 -5 16 -10 13 -18 -12 -22 28 -4 43 17 13 17 13 -2 7 -11 -4 -22 -8 -25 -9
-3 -1 -6 3 -7 8 -2 6 3 10 10 10 6 0 12 6 12 13 0 6 -4 12 -8 11 -5 0 -15 8
-23 18 -7 10 -14 14 -14 9 0 -5 -8 -2 -17 5 -16 13 -17 12 -4 -3 12 -16 11
-18 -10 -18 -23 -1 -23 -1 -5 -15 19 -14 41 -11 31 5 -3 5 -1 11 4 14 5 3 11
0 14 -7 3 -8 -3 -18 -13 -25 -13 -8 -23 -7 -41 6 -26 18 -49 24 -49 13 0 -4
-6 -8 -13 -8 -8 0 -14 5 -14 12 0 6 14 11 34 10 18 -1 35 1 38 5 8 13 -77 3
-86 -11 -7 -10 -8 -6 -3 14 4 17 2 27 -5 27 -6 0 -11 5 -11 11 0 5 4 8 8 5 5
-3 9 1 9 9 0 8 -4 12 -8 9 -4 -2 -11 0 -14 6 -5 8 -11 7 -21 -1 -11 -9 -14 -8
-14 5 0 9 6 16 14 16 8 0 17 4 20 9 4 5 -3 7 -14 4 -11 -3 -23 -9 -25 -14 -3
-4 -13 -5 -22 -2 -12 5 -14 3 -8 -7 5 -9 4 -11 -4 -6 -15 10 -3 29 15 22 8 -3
14 0 14 5 0 7 -11 9 -25 7 -25 -5 -34 5 -15 17 6 3 10 11 10 17 0 6 -6 5 -16
-2 -8 -8 -14 -9 -13 -4 3 18 -2 29 -22 54 -18 23 -19 23 -9 3 7 -16 7 -23 0
-23 -5 0 -10 5 -10 10 0 6 -4 10 -10 10 -5 0 -7 -8 -4 -17 5 -15 4 -15 -4 -4
-6 9 -7 22 -2 31 8 14 -10 52 -24 51 -18 -2 -26 0 -25 7 4 21 -3 31 -20 29
-13 -1 -17 -6 -13 -17 5 -13 3 -13 -11 -1 -9 7 -17 10 -17 7 0 -4 -7 0 -16 8
-8 9 -21 16 -27 15 -8 0 -8 -2 1 -6 6 -2 10 -9 6 -14 -3 -5 0 -8 7 -7 6 2 14
-4 16 -12 3 -9 1 -11 -4 -5 -7 9 -27 12 -35 5 -9 -6 -37 -7 -33 0 3 4 -4 10
-15 13 -11 3 -23 0 -27 -5 -3 -6 -1 -8 5 -4 6 3 13 2 16 -3 7 -11 -13 -9 -31
2 -7 5 -18 5 -25 1 -8 -5 -6 -10 8 -15 16 -6 16 -8 2 -8 -9 -1 -20 4 -23 9 -4
6 -11 8 -16 5 -5 -4 -9 -1 -9 5 0 7 6 10 14 7 10 -4 12 0 9 14 -5 18 -6 18
-18 3 -11 -16 -13 -16 -22 1 -7 12 -12 14 -17 6z m-333 -26 c4 -8 3 -16 -1
-19 -4 -3 -9 4 -9 15 -2 23 3 25 10 4z m65 0 c-2 -6 -9 -9 -15 -9 -7 1 -13 -3
-13 -9 0 -6 -3 -7 -6 -4 -9 8 16 39 28 35 5 -2 8 -8 6 -13z m95 0 c4 -8 3 -16
-1 -19 -4 -3 -9 4 -9 15 -2 23 3 25 10 4z m65 0 c-2 -6 -9 -9 -15 -9 -7 1 -13
-3 -13 -9 0 -6 -3 -7 -6 -4 -9 8 16 39 28 35 5 -2 8 -8 6 -13z m130 -6 c3 -12
2 -12 -6 0 -8 11 -10 11 -15 0 -4 -10 -6 -8 -6 4 -1 21 21 18 27 -4z m267 12
c3 -5 1 -12 -5 -16 -5 -3 -10 1 -10 9 0 18 6 21 15 7z m-41 -17 c3 -8 2 -12
-4 -9 -6 3 -10 10 -10 16 0 14 7 11 14 -7z m60 -26 c-5 -8 -2 -9 9 -5 23 9 30
-8 10 -24 -9 -8 -14 -9 -10 -3 4 7 0 15 -9 18 -13 5 -12 26 2 26 3 0 2 -5 -2
-12z m-740 -13 c-4 -8 -10 -15 -15 -15 -4 0 -6 -7 -3 -15 6 -13 -6 -20 -28
-16 -5 0 -8 -4 -8 -11 0 -6 -3 -8 -7 -5 -4 4 9 23 27 42 38 39 42 41 34 20z
m822 -71 c-4 -9 -9 -15 -11 -12 -3 3 -3 13 1 22 4 9 9 15 11 12 3 -3 3 -13 -1
-22z m119 -84 c3 -5 1 -10 -4 -10 -6 0 -11 5 -11 10 0 6 2 10 4 10 3 0 8 -4
11 -10z m-5 -25 c0 -2 -6 -5 -13 -8 -8 -3 -14 1 -14 8 0 7 6 11 14 8 7 -3 13
-6 13 -8z m7 -37 c-3 -8 -6 -5 -6 6 -1 11 2 17 5 13 3 -3 4 -12 1 -19z m-1142
-17 c-6 -5 -25 10 -25 20 0 5 6 4 14 -3 8 -7 12 -15 11 -17z m-51 -20 c-2 -3
-12 3 -22 13 -16 17 -16 18 5 5 12 -7 20 -15 17 -18z m-84 4 c0 -12 -19 -12
-23 0 -4 9 -1 12 9 8 7 -3 14 -7 14 -8z m-23 -61 c-3 -3 -12 -4 -19 -1 -8 3
-5 6 6 6 11 1 17 -2 13 -5z m-200 -61 c0 -9 -4 -10 -14 -2 -7 6 -13 12 -13 14
0 1 6 2 13 2 8 0 14 -6 14 -14z m1968 -73 c-3 -5 -12 -10 -18 -10 -7 0 -6 4 3
10 19 12 23 12 15 0z m81 -84 c1 -9 -3 -12 -13 -9 -11 4 -12 8 -3 13 9 5 6 10
-9 15 -11 3 -21 11 -21 16 0 15 43 -18 46 -35z m-2156 20 c0 -2 -7 -6 -15 -10
-8 -3 -15 -1 -15 4 0 6 7 10 15 10 8 0 15 -2 15 -4z m-55 -24 c-3 -3 -11 0
-18 7 -9 10 -8 11 6 5 10 -3 15 -9 12 -12z m2257 -40 c9 -9 9 -12 0 -12 -7 0
-12 6 -12 13 0 9 -2 9 -9 -1 -7 -11 -9 -11 -14 1 -7 18 17 17 35 -1z m-2331
-39 c13 -16 12 -17 -3 -5 -12 10 -17 10 -20 1 -2 -7 -12 -13 -21 -15 -9 -1
-15 2 -11 7 3 5 9 7 14 4 4 -3 10 2 14 10 7 19 11 19 27 -2z m2387 -14 c9 -13
9 -16 -3 -16 -8 0 -12 4 -9 9 3 4 0 8 -6 8 -6 0 -8 5 -5 11 4 6 8 9 9 7 1 -2
7 -10 14 -19z m-2433 -47 c-3 -3 -11 0 -18 7 -9 10 -8 11 6 5 10 -3 15 -9 12
-12z m-3 -21 c-8 -4 -14 -12 -14 -16 0 -4 6 -12 14 -17 10 -8 10 -9 -2 -5 -24
6 -21 47 3 47 8 0 8 -3 -1 -9z m18 -55 c0 -2 -9 -6 -20 -9 -11 -3 -18 -1 -14
4 5 9 34 13 34 5z m-8 -84 c-7 -2 -9 -9 -5 -15 3 -7 2 -8 -2 -4 -16 14 -14 36
3 29 10 -4 12 -7 4 -10z m-5 -58 c-3 -3 -12 -4 -19 -1 -8 3 -5 6 6 6 11 1 17
-2 13 -5z m3 -38 c0 -2 -7 -7 -16 -10 -8 -3 -12 -2 -9 4 6 10 25 14 25 6z
m-10 -206 c-12 -8 -12 -10 -1 -10 8 0 12 -3 8 -6 -9 -9 -28 6 -22 17 4 5 12 9
18 9 7 0 6 -4 -3 -10z m2 -39 c-17 -11 -17 -21 0 -33 10 -8 10 -9 -2 -5 -24 6
-21 47 3 47 8 0 8 -3 -1 -9z m18 -55 c0 -2 -9 -6 -20 -9 -11 -3 -18 -1 -14 4
5 9 34 13 34 5z m-8 -84 c-7 -2 -9 -9 -5 -15 3 -7 2 -8 -2 -4 -16 14 -14 36 3
29 10 -4 12 -7 4 -10z m-5 -58 c-3 -3 -12 -4 -19 -1 -8 3 -5 6 6 6 11 1 17 -2
13 -5z m3 -38 c0 -2 -7 -7 -16 -10 -8 -3 -12 -2 -9 4 6 10 25 14 25 6z m94
-131 c6 -18 -29 -41 -39 -25 -4 6 -3 10 2 9 22 -4 32 2 27 16 -4 8 -4 15 -1
15 3 0 7 -7 11 -15z m2266 -29 c0 -2 -7 -9 -15 -16 -13 -11 -14 -10 -9 4 5 14
24 23 24 12z m-2193 -78 c2 -17 0 -19 -7 -8 -5 8 -6 18 -4 22 8 12 10 10 11
-14z m2063 -58 c-8 -5 -19 -10 -25 -10 -5 0 -3 5 5 10 8 5 20 10 25 10 6 0 3
-5 -5 -10z"/>
<path d="M1496 2409 c3 -5 12 -9 20 -9 9 0 12 -5 8 -12 -4 -7 -3 -8 5 -4 15
10 7 22 -19 29 -11 3 -18 1 -14 -4z"/>
<path d="M1445 2400 c3 -5 8 -10 11 -10 2 0 4 5 4 10 0 6 -5 10 -11 10 -5 0
-7 -4 -4 -10z"/>
<path d="M796 2242 c-3 -5 1 -9 9 -9 8 0 12 4 9 9 -3 4 -7 8 -9 8 -2 0 -6 -4
-9 -8z"/>
<path d="M395 2040 c-3 -5 -1 -10 4 -10 6 0 11 5 11 10 0 6 -2 10 -4 10 -3 0
-8 -4 -11 -10z"/>
<path d="M2116 2037 c3 -10 9 -15 12 -12 3 3 0 11 -7 18 -10 9 -11 8 -5 -6z"/>
<path d="M241 1887 c-13 -21 -12 -21 5 -5 10 10 16 20 13 22 -3 3 -11 -5 -18
-17z"/>
<path d="M2345 1860 c3 -5 8 -10 11 -10 2 0 4 5 4 10 0 6 -5 10 -11 10 -5 0
-7 -4 -4 -10z"/>
<path d="M2527 1739 c7 -7 15 -10 18 -7 3 3 -2 9 -12 12 -14 6 -15 5 -6 -5z"/>
<path d="M2553 1651 c0 -11 5 -18 9 -15 4 3 5 11 1 19 -7 21 -12 19 -10 -4z"/>
<path d="M2530 1622 c0 -5 10 -17 22 -28 l21 -19 -18 28 c-18 28 -25 33 -25
19z"/>
<path d="M2533 1572 c1 -14 5 -18 11 -12 7 7 6 14 -1 21 -9 9 -12 7 -10 -9z"/>
<path d="M2550 1541 c0 -6 4 -13 10 -16 6 -3 7 1 4 9 -7 18 -14 21 -14 7z"/>
<path d="M2530 1461 c0 -5 7 -15 17 -22 15 -13 15 -12 4 9 -12 23 -21 28 -21
13z"/>
<path d="M2533 1412 c1 -14 5 -18 11 -12 7 7 6 14 -1 21 -9 9 -12 7 -10 -9z"/>
<path d="M2550 1339 c0 -5 5 -7 10 -4 6 3 10 8 10 11 0 2 -4 4 -10 4 -5 0 -10
-5 -10 -11z"/>
<path d="M2530 1304 c0 -6 6 -17 14 -23 11 -9 16 -9 22 1 4 7 4 10 -1 6 -4 -4
-14 0 -21 10 -7 9 -14 12 -14 6z"/>
<path d="M2533 1252 c1 -14 5 -18 11 -12 7 7 6 14 -1 21 -9 9 -12 7 -10 -9z"/>
<path d="M2550 1219 c0 -5 5 -7 10 -4 6 3 10 8 10 11 0 2 -4 4 -10 4 -5 0 -10
-5 -10 -11z"/>
<path d="M2553 1171 c0 -11 5 -18 9 -15 4 3 5 11 1 19 -7 21 -12 19 -10 -4z"/>
<path d="M2530 1142 c0 -5 10 -17 22 -28 l21 -19 -18 28 c-18 28 -25 33 -25
19z"/>
<path d="M2533 1092 c1 -14 5 -18 11 -12 7 7 6 14 -1 21 -9 9 -12 7 -10 -9z"/>
<path d="M2550 1061 c0 -6 4 -13 10 -16 6 -3 7 1 4 9 -7 18 -14 21 -14 7z"/>
<path d="M2530 981 c0 -5 7 -15 17 -22 15 -13 15 -12 4 9 -12 23 -21 28 -21
13z"/>
<path d="M2533 932 c1 -14 5 -18 11 -12 7 7 6 14 -1 21 -9 9 -12 7 -10 -9z"/>
<path d="M2550 859 c0 -5 5 -7 10 -4 6 3 10 8 10 11 0 2 -4 4 -10 4 -5 0 -10
-5 -10 -11z"/>
<path d="M2454 788 c-4 -7 -4 -10 1 -6 4 4 15 2 24 -5 14 -11 14 -10 2 6 -16
20 -18 21 -27 5z"/>
<path d="M155 731 c11 -5 23 -7 28 -4 4 2 7 -1 7 -6 0 -6 -4 -11 -10 -11 -5 0
-10 -5 -10 -12 0 -9 3 -9 12 0 10 10 16 8 31 -10 17 -20 16 -18 -1 11 -15 25
-29 36 -49 38 -23 2 -24 1 -8 -6z"/>
<path d="M310 602 c0 -5 6 -15 14 -21 12 -10 14 -9 12 5 -3 19 -26 33 -26 16z"/>
</g>
</svg>
